PathFileType	4	(X/Y/Z)	SB25.trc
DataRate	CameraRate	NumFrames	NumMarkers	Units	OrigDataRate	OrigDataStartFrame	OrigNumFrames
60.0	60.0	5	25	m	60.0	200	531
Frame#	Time	R.ASIS			L.ASIS			V.Sacral			R.Knee.Lat			R.Knee.Med			L.Knee.Lat			L.Knee.Med			R.Ankle.Lat			R.Ankle.Med			L.Ankle.Lat			L.Ankle.Med			R.Shank.Front			L.Shank.Front			R.Heel			L.Heel			R.Toe.Tip			L.Toe.Tip			R.Midfoot.Lat			L.Midfoot.Lat			R.Toe.Med			L.Toe.Med			Sternum			Top.Head			R.Acromium			L.Acromium		
		X1	Y1	Z1	X2	Y2	Z2	X3	Y3	Z3	X4	Y4	Z4	X5	Y5	Z5	X6	Y6	Z6	X7	Y7	Z7	X8	Y8	Z8	X9	Y9	Z9	X10	Y10	Z10	X11	Y11	Z11	X12	Y12	Z12	X13	Y13	Z13	X14	Y14	Z14	X15	Y15	Z15	X16	Y16	Z16	X17	Y17	Z17	X18	Y18	Z18	X19	Y19	Z19	X20	Y20	Z20	X21	Y21	Z21	X22	Y22	Z22	X23	Y23	Z23	X24	Y24	Z24	X25	Y25	Z25

200	3.316667	20.211461	0.926592	0.174306	20.278629	0.928507	-0.135840	20.087364	0.850014	-0.015081	20.255889	0.352258	0.065849	20.270700	0.371403	-0.017162	20.256311	0.346515	-0.136466	20.249322	0.346515	-0.051265	20.192277	-0.045947	-0.043340	20.202186	-0.034460	-0.103826	19.915919	0.595393	-0.085582	19.919776	0.593478	-0.024053	20.313665	0.323541	0.020173	20.204897	0.327370	-0.083386	20.135964	-0.116781	-0.108312	19.911328	0.696859	-0.003926	20.417328	-0.174215	-0.068885	19.662812	0.551361	0.050193	20.308139	-0.179958	-0.040417	19.730391	0.626024	-0.005390	20.325349	-0.155070	-0.126975	19.770018	0.585821	0.068967	20.341508	1.353514	0.081390	20.282586	1.726831	0.085977	20.217925	1.338198	0.236566	20.279254	1.380316	-0.123013
201	3.333333	20.339420	0.913191	0.179211	20.408257	0.915106	-0.131874	20.216054	0.838528	-0.012784	20.325240	0.331199	0.064182	20.341719	0.348429	-0.019768	20.451953	0.350344	-0.132291	20.439019	0.348429	-0.045942	20.182892	-0.044032	-0.060026	20.192800	-0.030631	-0.120512	20.098316	0.583906	-0.089333	20.103112	0.585821	-0.026135	20.374256	0.292910	0.014647	20.398140	0.329285	-0.075664	20.126995	-0.118696	-0.116446	20.071930	0.691115	-0.015185	20.409715	-0.168471	-0.066800	19.841455	0.511157	0.039768	20.298649	-0.172300	-0.041669	19.902881	0.593478	-0.018944	20.316589	-0.156985	-0.130834	19.942717	0.566676	0.059689	20.467591	1.343942	0.082957	20.398240	1.715344	0.084624	20.352768	1.322883	0.241992	20.397723	1.372658	-0.119360
202	3.350000	20.470717	0.905533	0.182238	20.535278	0.909362	-0.128639	20.344013	0.832784	-0.007879	20.397198	0.319713	0.063245	20.414616	0.336943	-0.019036	20.641128	0.365659	-0.120085	20.627256	0.363745	-0.035404	20.191443	-0.022973	-0.060443	20.201352	-0.009572	-0.120929	20.259334	0.549446	-0.092040	20.263192	0.555190	-0.030511	20.439331	0.275680	0.013189	20.589714	0.336943	-0.067004	20.125118	-0.099551	-0.119784	20.223980	0.652826	-0.026028	20.397826	-0.166557	-0.064506	20.037723	0.436494	0.021627	20.291036	-0.168471	-0.039583	20.080377	0.520730	-0.035313	20.311583	-0.156985	-0.128018	20.120422	0.505414	0.047596	20.593465	1.340113	0.080249	20.516501	1.709601	0.084001	20.490009	1.315225	0.243872	20.512647	1.368829	-0.118106
203	3.366667	20.614633	0.907448	0.180364	20.660213	0.911277	-0.133016	20.478126	0.832784	0.000154	20.469572	0.325456	0.070860	20.486990	0.338857	-0.011422	20.827905	0.400119	-0.104333	20.814972	0.398205	-0.017984	20.228569	0.005743	-0.037395	20.240146	0.015316	-0.098819	20.411593	0.480526	-0.098607	20.412113	0.488184	-0.035201	20.507638	0.277595	0.025288	20.785772	0.361830	-0.054277	20.144307	-0.051690	-0.113005	20.367478	0.562847	-0.036453	20.390422	-0.201017	-0.058144	20.261627	0.306311	-0.009862	20.283423	-0.166557	-0.037498	20.273621	0.394376	-0.062736	20.311791	-0.151241	-0.123742	20.304384	0.388633	0.023197	20.719652	1.345856	0.066381	20.638308	1.713430	0.085777	20.632047	1.320968	0.238661	20.622148	1.372658	-0.122588
204	3.383333	20.762824	0.915106	0.178282	20.783271	0.918934	-0.140730	20.613907	0.838528	0.007249	20.547370	0.346515	0.084210	20.565518	0.356087	-0.000678	21.008738	0.444152	-0.087435	20.999141	0.446066	-0.002963	20.279877	0.042118	-0.004752	20.291454	0.047861	-0.066177	20.593782	0.380975	-0.106633	20.589088	0.388633	-0.044687	20.579491	0.294825	0.039785	20.982769	0.400119	-0.039881	20.182162	0.022973	-0.092564	20.515983	0.430751	-0.049694	20.357259	-0.208675	-0.070242	20.510977	0.145498	-0.046879	20.270388	-0.141669	-0.041148	20.490642	0.241220	-0.094747	20.311061	-0.120610	-0.121135	20.513062	0.241220	-0.004121	20.843962	1.359257	0.049177	20.765120	1.721088	0.084737	20.776484	1.334369	0.229904	20.729772	1.378402	-0.130407
